<svg width="106" height="107" viewBox="0 0 106 107" fill="none" xmlns="http://www.w3.org/2000/svg">
<g filter="url(#filter0_d_1889_232)">
<rect x="20" y="12.4473" width="66" height="66" rx="24" fill="url(#paint0_linear_1889_232)"/>
</g>
<path fill-rule="evenodd" clip-rule="evenodd" d="M53.1935 46.1972C55.837 46.1972 57.9801 44.0542 57.9801 41.4106C57.9801 38.7671 55.837 36.624 53.1935 36.624C50.55 36.624 48.4069 38.7671 48.4069 41.4106C48.4069 44.0542 50.55 46.1972 53.1935 46.1972Z" fill="white"/>
<path fill-rule="evenodd" clip-rule="evenodd" d="M57.3476 45.6616C56.2714 46.6877 54.8064 47.319 53.1924 47.319C51.5784 47.319 50.1134 46.6877 49.0372 45.6616C48.8519 45.6156 48.6665 45.5702 48.4865 45.5472C48.3066 45.5243 48.1324 45.5243 47.9701 45.5494C47.8083 45.5739 47.6587 45.6242 47.4841 45.6867C47.3094 45.7486 47.1102 45.8234 46.8608 45.973C46.6119 46.1225 46.3123 46.3469 46.026 46.7213C45.7392 47.0947 45.4652 47.6187 45.2158 48.2421C44.9664 48.8649 44.742 49.5881 44.6176 50.2863C44.4932 50.9839 44.4681 51.6575 44.4558 52.1681C44.443 52.6793 44.443 53.0286 44.4932 53.3652C44.5428 53.7017 44.6422 54.0254 44.867 54.3496C45.0913 54.6739 45.4401 54.9981 45.8513 55.247C46.2626 55.4965 46.7363 55.6711 47.3847 55.7582C48.0326 55.8453 48.8551 55.8453 49.8522 55.8453H52.7438H53.1924H53.641H56.5326C57.5298 55.8453 58.3523 55.8453 59.0001 55.7582C59.6485 55.6711 60.1222 55.4965 60.5335 55.247C60.9447 54.9981 61.2935 54.6739 61.5178 54.3496C61.7427 54.0254 61.842 53.7017 61.8917 53.3652C61.9419 53.0286 61.9419 52.6793 61.9291 52.1681C61.9168 51.6575 61.8917 50.9839 61.7672 50.2863C61.6428 49.5881 61.4185 48.8649 61.169 48.2421C60.9196 47.6187 60.6456 47.0947 60.3588 46.7213C60.0726 46.3469 59.7729 46.1225 59.524 45.973C59.2746 45.8234 59.0754 45.7486 58.9008 45.6867C58.7261 45.6242 58.5766 45.5739 58.4147 45.5494C58.2524 45.5243 58.0783 45.5243 57.8983 45.5472C57.7183 45.5702 57.533 45.6156 57.3476 45.6616Z" fill="white"/>
<path fill-rule="evenodd" clip-rule="evenodd" d="M58.293 43.7694C59.1437 44.5461 60.2763 45.0204 61.519 45.0204C64.1619 45.0204 66.3044 42.8774 66.3044 40.2338C66.3044 37.5903 64.1619 35.4473 61.519 35.4473C59.8219 35.4473 58.3304 36.3313 57.4813 37.664C58.4393 38.539 59.0406 39.7996 59.0406 41.1996C59.0406 42.1451 58.7661 43.0275 58.293 43.7694Z" fill="white"/>
<path fill-rule="evenodd" clip-rule="evenodd" d="M47.707 43.7694C46.8563 44.5461 45.7237 45.0204 44.481 45.0204C41.8381 45.0204 39.6956 42.8774 39.6956 40.2338C39.6956 37.5903 41.8381 35.4473 44.481 35.4473C46.1781 35.4473 47.6696 36.3313 48.5187 37.664C47.5607 38.539 46.9594 39.7996 46.9594 41.1996C46.9594 42.1451 47.2339 43.0275 47.707 43.7694Z" fill="white"/>
<path fill-rule="evenodd" clip-rule="evenodd" d="M65.4097 44.6616C64.3651 45.6567 62.9551 46.2811 61.3976 46.3174L61.5697 46.5236C61.8566 46.897 62.1307 47.421 62.3802 48.0444C62.6297 48.6672 62.8541 49.3904 62.9786 50.0886C63.1031 50.7862 63.1282 51.4598 63.1405 51.9704C63.1533 52.4816 63.1533 52.831 63.1031 53.1675C63.0534 53.504 62.954 53.8277 62.7291 54.1519C62.5619 54.3934 62.3257 54.6353 62.0463 54.8453H64.5943C65.5919 54.8453 66.4147 54.8453 67.0628 54.7582C67.7114 54.6711 68.1853 54.4965 68.5967 54.247C69.0081 53.9981 69.357 53.6739 69.5814 53.3496C69.8064 53.0254 69.9058 52.7017 69.9554 52.3652C70.0057 52.0286 70.0057 51.6793 69.9928 51.1681C69.9806 50.6575 69.9554 49.9839 69.8309 49.2863C69.7065 48.5881 69.4821 47.8649 69.2325 47.2421C68.983 46.6187 68.7089 46.0947 68.422 45.7213C68.1356 45.3469 67.8359 45.1225 67.5869 44.973C67.3374 44.8234 67.1381 44.7486 66.9634 44.6867C66.7887 44.6242 66.6391 44.5739 66.4772 44.5494C66.3148 44.5243 66.1406 44.5243 65.9605 44.5472C65.7805 44.5702 65.5951 44.6156 65.4097 44.6616Z" fill="white"/>
<path fill-rule="evenodd" clip-rule="evenodd" d="M40.5903 44.6616C41.6349 45.6567 43.0449 46.2811 44.6024 46.3174L44.4303 46.5236C44.1434 46.897 43.8693 47.421 43.6198 48.0444C43.3703 48.6672 43.1459 49.3904 43.0214 50.0886C42.8969 50.7862 42.8718 51.4598 42.8595 51.9704C42.8467 52.4816 42.8467 52.831 42.8969 53.1675C42.9466 53.504 43.046 53.8277 43.2709 54.1519C43.4381 54.3934 43.6743 54.6353 43.9537 54.8453H41.4057C40.4081 54.8453 39.5853 54.8453 38.9372 54.7582C38.2886 54.6711 37.8147 54.4965 37.4033 54.247C36.9919 53.9981 36.643 53.6739 36.4186 53.3496C36.1936 53.0254 36.0942 52.7017 36.0446 52.3652C35.9943 52.0286 35.9943 51.6793 36.0072 51.1681C36.0194 50.6575 36.0446 49.9839 36.1691 49.2863C36.2935 48.5881 36.5179 47.8649 36.7675 47.2421C37.017 46.6187 37.2911 46.0947 37.578 45.7213C37.8644 45.3469 38.1641 45.1225 38.4131 44.973C38.6626 44.8234 38.8619 44.7486 39.0366 44.6867C39.2113 44.6242 39.3609 44.5739 39.5228 44.5494C39.6852 44.5243 39.8594 44.5243 40.0395 44.5472C40.2195 44.5702 40.4049 44.6156 40.5903 44.6616Z" fill="white"/>
<defs>
<filter id="filter0_d_1889_232" x="0" y="0.447266" width="106" height="106" filterUnits="userSpaceOnUse" color-interpolation-filters="sRGB">
<feFlood flood-opacity="0" result="BackgroundImageFix"/>
<feColorMatrix in="SourceAlpha" type="matrix" values="0 0 0 0 0 0 0 0 0 0 0 0 0 0 0 0 0 0 127 0" result="hardAlpha"/>
<feMorphology radius="2" operator="erode" in="SourceAlpha" result="effect1_dropShadow_1889_232"/>
<feOffset dy="8"/>
<feGaussianBlur stdDeviation="11"/>
<feColorMatrix type="matrix" values="0 0 0 0 0.971137 0 0 0 0 0.341921 0 0 0 0 0.36709 0 0 0 0.3 0"/>
<feBlend mode="normal" in2="BackgroundImageFix" result="effect1_dropShadow_1889_232"/>
<feBlend mode="normal" in="SourceGraphic" in2="effect1_dropShadow_1889_232" result="shape"/>
</filter>
<linearGradient id="paint0_linear_1889_232" x1="33.5" y1="12.4473" x2="65" y2="78.4473" gradientUnits="userSpaceOnUse">
<stop stop-color="#FF858A"/>
<stop offset="1" stop-color="#F04148"/>
</linearGradient>
</defs>
</svg>
