<svg width="36" height="37" viewBox="0 0 36 37" fill="none" xmlns="http://www.w3.org/2000/svg">
<circle cx="18" cy="18.4473" r="18" fill="white"/>
<path d="M25.7627 12.5775C26.623 12.0619 27.2836 11.2454 27.5947 10.2725C26.7897 10.7499 25.898 11.0966 24.9489 11.2835C24.1889 10.4738 23.1061 9.96777 21.9078 9.96777C19.6067 9.96777 17.7412 11.8332 17.7412 14.1341C17.7412 14.4607 17.7781 14.7787 17.8491 15.0836C14.3864 14.9099 11.3163 13.2511 9.2614 10.7304C8.90276 11.3458 8.6973 12.0615 8.6973 12.825C8.6973 14.2705 9.43292 15.5458 10.5509 16.2929C9.86784 16.2713 9.22545 16.0839 8.66365 15.7718C8.66335 15.7892 8.66335 15.8067 8.66335 15.8242C8.66335 17.8429 10.0995 19.5269 12.0055 19.9096C11.6559 20.0048 11.2878 20.0557 10.9078 20.0557C10.6393 20.0557 10.3783 20.0296 10.124 19.981C10.6541 21.6363 12.1928 22.8408 14.016 22.8745C12.5901 23.9919 10.7935 24.658 8.84155 24.658C8.50528 24.658 8.17361 24.6383 7.84766 24.5998C9.69149 25.782 11.8816 26.4717 14.2345 26.4717C21.898 26.4717 26.0887 20.123 26.0887 14.6173C26.0887 14.4366 26.0847 14.2569 26.0767 14.0783C26.8907 13.4908 27.5971 12.757 28.1557 11.9215C27.4085 12.2528 26.6055 12.4768 25.7627 12.5775Z" fill="#2B2B39"/>
</svg>
