<svg width="36" height="37" viewBox="0 0 36 37" fill="none" xmlns="http://www.w3.org/2000/svg">
<circle cx="18" cy="18.4473" r="18" fill="white"/>
<path d="M17.9542 10.7017C20.475 10.7017 20.75 10.7017 21.7583 10.7475C22.675 10.7934 23.1792 10.9309 23.5 11.0684C23.9125 11.2059 24.2792 11.4809 24.6 11.7559C24.9208 12.0767 25.15 12.4434 25.2875 12.8559C25.425 13.1767 25.5625 13.6809 25.6083 14.5975C25.6542 15.6059 25.6542 15.8809 25.6542 18.4017C25.6542 20.9225 25.6542 21.1975 25.6083 22.2059C25.5625 23.1225 25.425 23.6267 25.2875 23.9475C24.9667 24.7725 24.325 25.4142 23.5 25.735C23.1792 25.8725 22.675 26.01 21.7583 26.0558C20.75 26.1017 20.475 26.1017 17.9542 26.1017C15.4333 26.1017 15.1583 26.1017 14.15 26.0558C13.2333 26.01 12.7292 25.8725 12.4083 25.735C11.9958 25.5975 11.6292 25.3225 11.3083 25.0475C10.9875 24.7267 10.7583 24.36 10.6208 23.9475C10.4833 23.6267 10.3458 23.1225 10.3 22.2059C10.2542 21.1975 10.2542 20.9225 10.2542 18.4017C10.2542 15.8809 10.2542 15.6059 10.3 14.5975C10.3458 13.6809 10.4833 13.1767 10.6208 12.8559C10.7583 12.4434 11.0333 12.0767 11.3083 11.7559C11.6292 11.435 11.9958 11.2059 12.4083 11.0684C12.7292 10.9309 13.2333 10.7934 14.15 10.7475C15.1583 10.7017 15.4792 10.7017 17.9542 10.7017ZM17.9542 9.00586C15.3875 9.00586 15.0667 9.00586 14.0583 9.05169C13.05 9.09753 12.3625 9.23503 11.7667 9.51003C11.1708 9.73919 10.6208 10.1059 10.1625 10.5642C9.70417 11.0225 9.29167 11.6184 9.0625 12.2142C8.83333 12.81 8.65 13.4975 8.60417 14.5059C8.55833 15.5142 8.55833 15.835 8.55833 18.4017C8.55833 20.9684 8.55833 21.2892 8.60417 22.2975C8.65 23.3059 8.7875 23.9934 9.0625 24.5892C9.29167 25.185 9.65833 25.7808 10.1625 26.2392C10.6208 26.6975 11.2167 27.11 11.8125 27.3392C12.4083 27.5683 13.0958 27.7517 14.1042 27.7975C15.1125 27.8433 15.4333 27.8433 18 27.8433C20.5667 27.8433 20.8875 27.8433 21.8958 27.7975C22.9042 27.7517 23.5917 27.6142 24.1875 27.3392C25.4708 26.835 26.4333 25.8725 26.9375 24.5892C27.1667 23.9934 27.35 23.3059 27.3958 22.2975C27.4417 21.2892 27.4417 20.9684 27.4417 18.4017C27.4417 15.835 27.4417 15.5142 27.3958 14.5059C27.35 13.4975 27.2125 12.81 26.9375 12.2142C26.7083 11.5725 26.3417 11.0225 25.8375 10.5642C25.3792 10.1059 24.7833 9.69336 24.1875 9.46419C23.5917 9.23503 22.9042 9.05169 21.8958 9.00586C20.8417 9.00586 20.5208 9.00586 17.9542 9.00586Z" fill="#2B2B39"/>
<path d="M17.9529 13.5889C15.2945 13.5889 13.1404 15.743 13.1404 18.4014C13.1404 21.0597 15.2945 23.2139 17.9529 23.2139C20.6112 23.2139 22.7654 21.0597 22.7654 18.4014C22.8112 15.743 20.657 13.5889 17.9529 13.5889ZM17.9529 21.5639C16.2112 21.5639 14.8362 20.143 14.8362 18.4472C14.8362 16.7055 16.257 15.3305 17.9529 15.3305C19.6945 15.3305 21.0695 16.7514 21.0695 18.4472C21.1154 20.143 19.6945 21.5639 17.9529 21.5639Z" fill="#2B2B39"/>
<path d="M22.9971 14.5514C23.63 14.5514 24.143 14.0384 24.143 13.4056C24.143 12.7728 23.63 12.2598 22.9971 12.2598C22.3643 12.2598 21.8513 12.7728 21.8513 13.4056C21.8513 14.0384 22.3643 14.5514 22.9971 14.5514Z" fill="#2B2B39"/>
</svg>
