<svg width="36" height="37" viewBox="0 0 36 37" fill="none" xmlns="http://www.w3.org/2000/svg">
<circle cx="18" cy="18.4473" r="18" fill="white"/>
<path d="M11.5678 14.0445C12.6754 14.0445 13.5734 13.1466 13.5734 12.0389C13.5734 10.9312 12.6754 10.0332 11.5678 10.0332C10.4601 10.0332 9.56208 10.9312 9.56208 12.0389C9.56208 13.1466 10.4601 14.0445 11.5678 14.0445Z" fill="#2B2B39"/>
<path d="M15.4661 15.5641V26.6915H18.921V21.1887C18.921 19.7367 19.1942 18.3306 20.9945 18.3306C22.7701 18.3306 22.7921 19.9906 22.7921 21.2804V26.6924H26.2489V20.5901C26.2489 17.5926 25.6035 15.2891 22.1 15.2891C20.4179 15.2891 19.2904 16.2121 18.8294 17.0857H18.7826V15.5641H15.4661ZM9.83594 15.5641H13.2964V26.6915H9.83594V15.5641Z" fill="#2B2B39"/>
</svg>
