<svg width="143" height="35" viewBox="0 0 143 35" fill="none" xmlns="http://www.w3.org/2000/svg">
<path d="M55.984 25.4473H52.624L45.016 13.9513V25.4473H41.656V8.67126H45.016L52.624 20.1913V8.67126H55.984V25.4473ZM71.6644 18.5113C71.6644 18.9913 71.6324 19.4233 71.5684 19.8073H61.8484C61.9284 20.7673 62.2644 21.5193 62.8564 22.0633C63.4484 22.6073 64.1764 22.8793 65.0404 22.8793C66.2884 22.8793 67.1764 22.3433 67.7044 21.2713H71.3284C70.9444 22.5513 70.2084 23.6073 69.1204 24.4393C68.0324 25.2553 66.6964 25.6633 65.1124 25.6633C63.8324 25.6633 62.6804 25.3833 61.6564 24.8233C60.6484 24.2473 59.8564 23.4393 59.2804 22.3993C58.7204 21.3593 58.4404 20.1593 58.4404 18.7993C58.4404 17.4233 58.7204 16.2153 59.2804 15.1753C59.8404 14.1353 60.6244 13.3353 61.6324 12.7753C62.6404 12.2153 63.8004 11.9353 65.1124 11.9353C66.3764 11.9353 67.5044 12.2073 68.4964 12.7513C69.5044 13.2953 70.2804 14.0713 70.8244 15.0793C71.3844 16.0713 71.6644 17.2153 71.6644 18.5113ZM68.1844 17.5513C68.1684 16.6873 67.8564 15.9993 67.2484 15.4873C66.6404 14.9593 65.8964 14.6953 65.0164 14.6953C64.1844 14.6953 63.4804 14.9513 62.9044 15.4633C62.3444 15.9593 62.0004 16.6553 61.8724 17.5513H68.1844ZM78.0289 14.9113V21.3433C78.0289 21.7913 78.1329 22.1193 78.3409 22.3273C78.5649 22.5193 78.9329 22.6153 79.4449 22.6153H81.0049V25.4473H78.8929C76.0609 25.4473 74.6449 24.0713 74.6449 21.3193V14.9113H73.0609V12.1513H74.6449V8.86326H78.0289V12.1513H81.0049V14.9113H78.0289ZM86.7816 14.0953C87.2136 13.4553 87.8056 12.9353 88.5576 12.5353C89.3256 12.1353 90.1976 11.9353 91.1736 11.9353C92.3096 11.9353 93.3336 12.2153 94.2456 12.7753C95.1736 13.3353 95.9016 14.1353 96.4296 15.1753C96.9736 16.1993 97.2456 17.3913 97.2456 18.7513C97.2456 20.1113 96.9736 21.3193 96.4296 22.3753C95.9016 23.4153 95.1736 24.2233 94.2456 24.7993C93.3336 25.3753 92.3096 25.6633 91.1736 25.6633C90.1816 25.6633 89.3096 25.4713 88.5576 25.0873C87.8216 24.6873 87.2296 24.1753 86.7816 23.5513V25.4473H83.4216V7.68727H86.7816V14.0953ZM93.8136 18.7513C93.8136 17.9513 93.6456 17.2633 93.3096 16.6873C92.9896 16.0953 92.5576 15.6473 92.0136 15.3433C91.4856 15.0393 90.9096 14.8873 90.2856 14.8873C89.6776 14.8873 89.1016 15.0473 88.5576 15.3673C88.0296 15.6713 87.5976 16.1193 87.2616 16.7113C86.9416 17.3033 86.7816 17.9993 86.7816 18.7993C86.7816 19.5993 86.9416 20.2953 87.2616 20.8873C87.5976 21.4793 88.0296 21.9353 88.5576 22.2553C89.1016 22.5593 89.6776 22.7113 90.2856 22.7113C90.9096 22.7113 91.4856 22.5513 92.0136 22.2313C92.5576 21.9113 92.9896 21.4553 93.3096 20.8633C93.6456 20.2713 93.8136 19.5673 93.8136 18.7513ZM105.591 25.6633C104.311 25.6633 103.159 25.3833 102.135 24.8233C101.111 24.2473 100.303 23.4393 99.7113 22.3993C99.1353 21.3593 98.8473 20.1593 98.8473 18.7993C98.8473 17.4393 99.1433 16.2393 99.7353 15.1993C100.343 14.1593 101.167 13.3593 102.207 12.7993C103.247 12.2233 104.407 11.9353 105.687 11.9353C106.967 11.9353 108.127 12.2233 109.167 12.7993C110.207 13.3593 111.023 14.1593 111.615 15.1993C112.223 16.2393 112.527 17.4393 112.527 18.7993C112.527 20.1593 112.215 21.3593 111.591 22.3993C110.983 23.4393 110.151 24.2473 109.095 24.8233C108.055 25.3833 106.887 25.6633 105.591 25.6633ZM105.591 22.7353C106.199 22.7353 106.767 22.5913 107.295 22.3033C107.839 21.9993 108.271 21.5513 108.591 20.9593C108.911 20.3673 109.071 19.6473 109.071 18.7993C109.071 17.5353 108.735 16.5673 108.063 15.8953C107.407 15.2073 106.599 14.8633 105.639 14.8633C104.679 14.8633 103.871 15.2073 103.215 15.8953C102.575 16.5673 102.255 17.5353 102.255 18.7993C102.255 20.0633 102.567 21.0393 103.191 21.7273C103.831 22.3993 104.631 22.7353 105.591 22.7353ZM120.896 25.6633C119.616 25.6633 118.464 25.3833 117.44 24.8233C116.416 24.2473 115.608 23.4393 115.016 22.3993C114.44 21.3593 114.152 20.1593 114.152 18.7993C114.152 17.4393 114.448 16.2393 115.04 15.1993C115.648 14.1593 116.472 13.3593 117.512 12.7993C118.552 12.2233 119.712 11.9353 120.992 11.9353C122.272 11.9353 123.432 12.2233 124.472 12.7993C125.512 13.3593 126.328 14.1593 126.92 15.1993C127.528 16.2393 127.832 17.4393 127.832 18.7993C127.832 20.1593 127.52 21.3593 126.896 22.3993C126.288 23.4393 125.456 24.2473 124.4 24.8233C123.36 25.3833 122.192 25.6633 120.896 25.6633ZM120.896 22.7353C121.504 22.7353 122.072 22.5913 122.6 22.3033C123.144 21.9993 123.576 21.5513 123.896 20.9593C124.216 20.3673 124.376 19.6473 124.376 18.7993C124.376 17.5353 124.04 16.5673 123.368 15.8953C122.712 15.2073 121.904 14.8633 120.944 14.8633C119.984 14.8633 119.176 15.2073 118.52 15.8953C117.88 16.5673 117.56 17.5353 117.56 18.7993C117.56 20.0633 117.872 21.0393 118.496 21.7273C119.136 22.3993 119.936 22.7353 120.896 22.7353ZM138.169 25.4473L133.657 19.7833V25.4473H130.297V7.68727H133.657V17.7913L138.121 12.1513H142.489L136.633 18.8233L142.537 25.4473H138.169Z" fill="#2B2B39"/>
<path d="M34.0013 17.4471C34.0013 26.8359 26.3901 34.4471 17.0013 34.4471C13.0609 34.4471 9.43369 33.1065 6.55078 30.8565L24.7833 12.624C25.6535 14.0246 26.1551 15.6764 26.1551 17.4471C26.1551 21.6398 23.3363 25.1741 19.4905 26.2584C18.9167 25.5124 18.0151 25.0317 17.0013 25.0317C15.2679 25.0317 13.8628 26.4368 13.8628 28.1702C13.8628 29.9035 15.2679 31.3086 17.0013 31.3086C18.2989 31.3086 19.4126 30.5211 19.8905 29.3979C25.2853 28.0984 29.2936 23.2408 29.2936 17.4471C29.2936 14.809 28.4612 12.3632 27.0465 10.3608L30.4107 6.99658C32.6607 9.87949 34.0013 13.5067 34.0013 17.4471Z" fill="#FFAF2E"/>
<path d="M6.95477 24.5335L3.59053 27.8977C1.34058 25.0148 0 21.3876 0 17.4473C0 8.05842 7.61116 0.447266 17 0.447266C20.9403 0.447266 24.5676 1.78785 27.4505 4.0378L9.218 22.2703C8.34783 20.8698 7.84615 19.218 7.84615 17.4473C7.84615 13.2546 10.6649 9.72021 14.5108 8.63592C15.0846 9.3819 15.9861 9.86264 17 9.86264C18.7333 9.86264 20.1385 8.45751 20.1385 6.72418C20.1385 4.99086 18.7333 3.58572 17 3.58572C15.7024 3.58572 14.5887 4.37324 14.1108 5.49641C8.71598 6.79598 4.70768 11.6535 4.70768 17.4473C4.70768 20.0852 5.54001 22.5311 6.95477 24.5335Z" fill="#F04148"/>
<circle cx="16.9991" cy="6.7242" r="1.30769" fill="#F04148"/>
<circle cx="16.9991" cy="28.1705" r="1.30769" fill="#FFAF2E"/>
</svg>
