<svg width="35" height="35" viewBox="0 0 35 35" fill="none" xmlns="http://www.w3.org/2000/svg">
<path d="M34.0013 17.4471C34.0013 26.8359 26.3901 34.4471 17.0013 34.4471C13.0609 34.4471 9.43369 33.1065 6.55078 30.8565L24.7833 12.624C25.6535 14.0246 26.1551 15.6764 26.1551 17.4471C26.1551 21.6398 23.3363 25.1741 19.4905 26.2584C18.9167 25.5124 18.0151 25.0317 17.0013 25.0317C15.2679 25.0317 13.8628 26.4368 13.8628 28.1702C13.8628 29.9035 15.2679 31.3086 17.0013 31.3086C18.2989 31.3086 19.4126 30.5211 19.8905 29.3979C25.2853 28.0984 29.2936 23.2408 29.2936 17.4471C29.2936 14.809 28.4612 12.3632 27.0465 10.3608L30.4107 6.99658C32.6607 9.87949 34.0013 13.5067 34.0013 17.4471Z" fill="#FFAF2E"/>
<path d="M6.95477 24.5335L3.59053 27.8977C1.34058 25.0148 0 21.3876 0 17.4473C0 8.05842 7.61116 0.447266 17 0.447266C20.9403 0.447266 24.5676 1.78785 27.4505 4.0378L9.218 22.2703C8.34783 20.8698 7.84615 19.218 7.84615 17.4473C7.84615 13.2546 10.6649 9.72021 14.5108 8.63592C15.0846 9.3819 15.9861 9.86264 17 9.86264C18.7333 9.86264 20.1385 8.45751 20.1385 6.72418C20.1385 4.99086 18.7333 3.58572 17 3.58572C15.7024 3.58572 14.5887 4.37324 14.1108 5.49641C8.71598 6.79598 4.70768 11.6535 4.70768 17.4473C4.70768 20.0852 5.54001 22.5311 6.95477 24.5335Z" fill="#F04148"/>
<circle cx="16.9991" cy="6.7242" r="1.30769" fill="#F04148"/>
<circle cx="16.9991" cy="28.1705" r="1.30769" fill="#FFAF2E"/>
</svg>
